<svg width="21" height="22" viewBox="0 0 21 22" fill="none" xmlns="http://www.w3.org/2000/svg">
<path d="M16.2553 1.02898C16.1639 1.02898 16.0778 1.07845 16.0306 1.15778L13.3975 5.59508C13.351 5.67348 13.3489 5.77218 13.3919 5.85245L15.0245 8.89372C15.2758 9.36178 15.1923 9.92832 14.8166 10.304L12.2789 12.8417L9.74115 15.3795C9.51551 15.6051 9.21521 15.7295 8.89578 15.7295C8.69931 15.7295 8.50401 15.6802 8.33064 15.5873L5.28938 13.9547C5.25134 13.9344 5.20864 13.9237 5.16571 13.9237C5.11881 13.9237 5.07261 13.9363 5.03225 13.9603L0.594942 16.5935C0.481308 16.6609 0.435577 16.8023 0.48831 16.9223C0.874243 17.8003 1.56281 19.3788 1.83908 20.0832C1.87338 20.1705 1.91841 20.2389 1.97324 20.2865C2.59344 20.8234 3.39378 21.0957 4.35278 21.0957C7.11568 21.0957 11.0739 18.8538 14.6827 15.2451C16.9931 12.9346 18.7982 10.4113 19.7654 8.14005C20.4889 6.44022 21.0692 4.08822 19.7236 2.53608C19.676 2.48125 19.6076 2.43598 19.5204 2.40192C18.8159 2.12565 17.2374 1.43685 16.3594 1.05115C16.326 1.03645 16.291 1.02898 16.2553 1.02898ZM16.2553 0.562317C16.3531 0.562317 16.4523 0.58215 16.547 0.623917C17.4099 1.00308 18.9916 1.69328 19.6907 1.96745C19.8379 2.02508 19.9728 2.11095 20.0764 2.23042C22.6398 5.18768 19.5164 11.0714 15.0128 15.575C11.6295 18.9583 7.46801 21.5623 4.35278 21.5623C3.32121 21.5623 2.40374 21.2765 1.66804 20.6388C1.54858 20.5352 1.46271 20.4003 1.40508 20.2533C1.13091 19.5543 0.44071 17.9725 0.0615425 17.1096C-0.0866241 16.7727 0.0407753 16.3798 0.357409 16.1919L4.79448 13.5588C4.90881 13.4909 5.03738 13.4568 5.16618 13.4568C5.28448 13.4568 5.40301 13.4855 5.51058 13.5434L8.55184 15.176C8.66035 15.2343 8.77864 15.2626 8.89625 15.2626C9.08501 15.2626 9.27144 15.1893 9.41144 15.0493L11.9492 12.5115L14.4869 9.97382C14.7142 9.74655 14.7655 9.39725 14.6136 9.11422L12.981 6.07295C12.8603 5.84802 12.8659 5.57618 12.9964 5.35662L15.6293 0.91955C15.7644 0.69205 16.0054 0.562317 16.2553 0.562317Z" fill="#DFE1EC"/>
<path d="M16.2553 1.02898C16.1639 1.02898 16.0778 1.07845 16.0306 1.15778L13.3975 5.59508C13.351 5.67348 13.3489 5.77218 13.3919 5.85245L15.0245 8.89372C15.2758 9.36178 15.1923 9.92832 14.8166 10.304L12.2789 12.8417L9.74115 15.3795C9.51551 15.6051 9.21521 15.7295 8.89578 15.7295C8.69931 15.7295 8.50401 15.6802 8.33064 15.5873L5.28938 13.9547C5.25134 13.9344 5.20864 13.9237 5.16571 13.9237C5.11881 13.9237 5.07261 13.9363 5.03225 13.9603L0.594942 16.5935C0.481308 16.6609 0.435577 16.8023 0.48831 16.9223C0.874243 17.8003 1.56281 19.3788 1.83908 20.0832C1.87338 20.1705 1.91841 20.2389 1.97324 20.2865C2.59344 20.8234 3.39378 21.0957 4.35278 21.0957C7.11568 21.0957 11.0739 18.8538 14.6827 15.2451C16.9931 12.9346 18.7982 10.4113 19.7654 8.14005C20.4889 6.44022 21.0692 4.08822 19.7236 2.53608C19.676 2.48125 19.6076 2.43598 19.5204 2.40192C18.8159 2.12565 17.2374 1.43685 16.3594 1.05115C16.326 1.03645 16.291 1.02898 16.2553 1.02898Z" fill="#4F5FA7"/>
</svg>
