<svg width="91" height="91" viewBox="0 0 91 91" fill="none" xmlns="http://www.w3.org/2000/svg">
<path d="M70.4398 2.02222C70.0435 2.02222 69.6704 2.23658 69.4661 2.58036L58.0557 21.8087C57.8545 22.1484 57.8454 22.5761 58.0315 22.9239L65.1062 36.1027C66.1952 38.131 65.8332 40.586 64.2053 42.2139L53.2085 53.2107L42.2116 64.2076C41.2339 65.1853 39.9326 65.7242 38.5484 65.7242C37.697 65.7242 36.8507 65.5109 36.0995 65.1085L22.9206 58.0337C22.7558 57.9458 22.5708 57.8993 22.3848 57.8993C22.1815 57.8993 21.9813 57.9539 21.8064 58.058L2.57809 69.4684C2.08568 69.7606 1.8875 70.3733 2.11601 70.893C3.78839 74.6979 6.77218 81.538 7.96934 84.5906C8.11797 84.9687 8.31311 85.265 8.55072 85.4712C11.2383 87.7978 14.7064 88.9778 18.862 88.9778C30.8346 88.9778 47.9871 79.263 63.6249 63.6252C73.637 53.6132 81.4589 42.679 85.65 32.8368C88.7854 25.4709 91.3001 15.2789 85.469 8.55299C85.2627 8.31538 84.9665 8.11922 84.5883 7.9716C81.5358 6.77444 74.6956 3.78964 70.8908 2.11828C70.7462 2.05458 70.5945 2.02222 70.4398 2.02222ZM70.4398 0C70.8635 0 71.2932 0.0859445 71.7037 0.266933C75.4428 1.90999 82.2971 4.90086 85.3264 6.08891C85.9644 6.33866 86.5489 6.71074 86.9978 7.22843C98.1059 20.0433 84.5711 45.5394 65.0557 65.0549C50.3946 79.716 32.3614 91 18.862 91C14.3919 91 10.4162 89.7614 7.22819 86.998C6.7105 86.5491 6.33841 85.9647 6.08867 85.3277C4.90061 82.2984 1.90974 75.4441 0.266685 71.705C-0.37537 70.2449 0.176697 68.5422 1.54877 67.7283L20.7761 56.3179C21.2715 56.0236 21.8286 55.876 22.3868 55.876C22.8994 55.876 23.413 56.0004 23.8792 56.2511L37.058 63.3259C37.5282 63.5787 38.0408 63.701 38.5504 63.701C39.3684 63.701 40.1763 63.3835 40.7829 62.7769L51.7798 51.78L62.7766 40.7832C63.7614 39.7983 63.9839 38.2847 63.3257 37.0582L56.2509 23.8794C55.7282 22.9047 55.7524 21.7268 56.3176 20.7753L67.727 1.54801C68.3125 0.562178 69.3569 0 70.4398 0Z" fill="white"/>
<path d="M70.4398 2.02222C70.0435 2.02222 69.6704 2.23658 69.4661 2.58036L58.0557 21.8087C57.8545 22.1484 57.8454 22.5761 58.0315 22.9239L65.1062 36.1027C66.1952 38.131 65.8332 40.586 64.2053 42.2139L53.2085 53.2107L42.2116 64.2076C41.2339 65.1853 39.9326 65.7242 38.5484 65.7242C37.697 65.7242 36.8507 65.5109 36.0995 65.1085L22.9206 58.0337C22.7558 57.9458 22.5708 57.8993 22.3848 57.8993C22.1815 57.8993 21.9813 57.9539 21.8064 58.058L2.57809 69.4684C2.08568 69.7606 1.8875 70.3733 2.11601 70.893C3.78839 74.6979 6.77218 81.538 7.96934 84.5906C8.11797 84.9687 8.31311 85.265 8.55072 85.4712C11.2383 87.7978 14.7064 88.9778 18.862 88.9778C30.8346 88.9778 47.9871 79.263 63.6249 63.6252C73.637 53.6132 81.4589 42.679 85.65 32.8368C88.7854 25.4709 91.3001 15.2789 85.469 8.55299C85.2627 8.31538 84.9665 8.11922 84.5883 7.9716C81.5358 6.77444 74.6956 3.78964 70.8908 2.11828C70.7462 2.05458 70.5945 2.02222 70.4398 2.02222Z" fill="white"/>
</svg>
