<svg width="34" height="35" viewBox="0 0 34 35" fill="none" xmlns="http://www.w3.org/2000/svg">
<rect width="34" height="34" transform="translate(0 0.926514)" fill="white"/>
<mask id="mask0_70_353" style="mask-type:luminance" maskUnits="userSpaceOnUse" x="0" y="1" width="34" height="34">
<path d="M33.754 1.30347H0.246094V34.8114H33.754V1.30347Z" fill="white"/>
</mask>
<g mask="url(#mask0_70_353)">
<path d="M31.9559 33.4443H2.00657C1.03595 33.4443 0.246277 32.6546 0.246277 31.684V19.4226H14.6983L14.6792 19.9931C14.6781 20.0287 14.674 20.0629 14.6692 20.0975C14.67 21.3429 15.7068 22.3793 16.9816 22.3793C18.2487 22.3793 19.2811 21.3547 19.2929 20.0902C19.2873 20.0526 19.2844 20.0203 19.2837 19.9868L19.2712 19.4226H33.7162V31.684C33.7162 32.6542 32.9265 33.4443 31.9559 33.4443ZM1.34968 20.526V31.684C1.34968 32.0463 1.64429 32.3409 2.00657 32.3409H31.9559C32.3182 32.3409 32.6128 32.0463 32.6128 31.684V20.526H20.3654C20.1414 22.1929 18.7088 23.4827 16.9812 23.4827C15.2537 23.4827 13.8214 22.1929 13.5971 20.526H1.34968Z" fill="#253993"/>
<path d="M1.34968 20.526V31.684C1.34968 32.0463 1.64429 32.3409 2.00657 32.3409H31.9559C32.3182 32.3409 32.6128 32.0463 32.6128 31.684V20.526H20.3654C20.1414 22.1929 18.7088 23.4827 16.9812 23.4827C15.2537 23.4827 13.8214 22.1929 13.5971 20.526H1.34968Z" fill="#253993"/>
<path d="M1.34967 20.5261V31.6841C1.34967 32.0464 1.64428 32.341 2.00656 32.341H31.9559C32.3182 32.341 32.6128 32.0464 32.6128 31.6841V20.5261H20.3654C20.1414 22.193 18.7088 23.4828 16.9812 23.4828C15.2537 23.4828 13.8214 22.193 13.5971 20.5261H1.34967Z" fill="#253993"/>
<path fill-rule="evenodd" clip-rule="evenodd" d="M31.9559 7.79232H22.1683V7.27777C22.1683 4.71677 20.0847 2.63281 17.5234 2.63281H16.4395C13.8785 2.63281 11.7945 4.71677 11.7945 7.27777V7.79232H2.00657C1.03595 7.79232 0.246277 8.58199 0.246277 9.55262V17.1499H33.7162V9.55262C33.7162 8.58199 32.9265 7.79232 31.9559 7.79232ZM16.4395 3.73621C14.4864 3.73621 12.8979 5.32474 12.8979 7.27777V7.79232H21.0649V7.27777C21.0649 5.32474 19.4764 3.73621 17.5234 3.73621H16.4395Z" fill="#253993"/>
<path d="M1.34967 16.0461H32.6128V9.55264C32.6128 9.19035 32.3182 8.89575 31.9559 8.89575H2.00656C1.64428 8.89575 1.34967 9.19072 1.34967 9.55264V16.0461Z" fill="#253993"/>
</g>
</svg>
