<svg width="32" height="32" viewBox="0 0 32 32" fill="none" xmlns="http://www.w3.org/2000/svg">
<path d="M24.3691 1.33705C24.2361 1.33705 24.1109 1.40898 24.0423 1.52434L20.2133 7.97679C20.1458 8.09079 20.1428 8.23432 20.2052 8.35104L22.5793 12.7735C22.9447 13.4541 22.8232 14.2779 22.277 14.8242L18.5867 18.5144L14.8965 22.2046C14.5684 22.5327 14.1317 22.7136 13.6672 22.7136C13.3816 22.7136 13.0976 22.642 12.8455 22.5069L8.42304 20.1329C8.36773 20.1033 8.30564 20.0877 8.24321 20.0877C8.17501 20.0877 8.10783 20.1061 8.04913 20.141L1.59668 23.97C1.43144 24.068 1.36494 24.2737 1.44162 24.4481C2.00282 25.7248 3.00409 28.0202 3.40582 29.0445C3.4557 29.1714 3.52118 29.2709 3.60092 29.3401C4.50278 30.1208 5.66657 30.5168 7.06109 30.5168C11.0787 30.5168 16.8346 27.2568 22.0822 22.0092C25.4419 18.6494 28.0668 14.9803 29.4732 11.6775C30.5253 9.20573 31.3692 5.7856 29.4124 3.52858C29.3432 3.44884 29.2438 3.38302 29.1169 3.33348C28.0925 2.93175 25.7972 1.93014 24.5204 1.36928C24.4719 1.3479 24.421 1.33705 24.3691 1.33705ZM24.3691 0.658447C24.5112 0.658447 24.6554 0.687288 24.7932 0.748022C26.0479 1.29938 28.348 2.30303 29.3646 2.70171C29.5787 2.78551 29.7748 2.91038 29.9254 3.0841C33.653 7.38437 29.1111 15.9401 22.5623 22.4889C17.6425 27.4088 11.5911 31.1954 7.06109 31.1954C5.56105 31.1954 4.22692 30.7797 3.15712 29.8524C2.98339 29.7018 2.85853 29.5057 2.77473 29.2919C2.37605 28.2754 1.3724 25.9752 0.821041 24.7205C0.605585 24.2306 0.790844 23.6592 1.25127 23.3861L7.70338 19.5571C7.86964 19.4583 8.05659 19.4088 8.24389 19.4088C8.41591 19.4088 8.58828 19.4505 8.74469 19.5347L13.1671 21.9087C13.3249 21.9936 13.4969 22.0346 13.6679 22.0346C13.9424 22.0346 14.2135 21.9281 14.4171 21.7245L18.1073 18.0343L21.7975 14.3441C22.128 14.0136 22.2027 13.5057 21.9818 13.0941L19.6077 8.67167C19.4323 8.34459 19.4404 7.94931 19.6301 7.63002L23.4587 1.17791C23.6552 0.847098 24.0057 0.658447 24.3691 0.658447Z" fill="#253993"/>
<path d="M24.3691 1.33705C24.2361 1.33705 24.1109 1.40898 24.0423 1.52434L20.2133 7.97679C20.1458 8.09079 20.1428 8.23432 20.2052 8.35104L22.5793 12.7735C22.9447 13.4541 22.8232 14.2779 22.277 14.8242L18.5867 18.5144L14.8965 22.2046C14.5684 22.5327 14.1317 22.7136 13.6672 22.7136C13.3816 22.7136 13.0976 22.642 12.8455 22.5069L8.42304 20.1329C8.36773 20.1033 8.30564 20.0877 8.24321 20.0877C8.17501 20.0877 8.10783 20.1061 8.04913 20.141L1.59668 23.97C1.43144 24.068 1.36494 24.2737 1.44162 24.4481C2.00282 25.7248 3.00409 28.0202 3.40582 29.0445C3.4557 29.1714 3.52118 29.2709 3.60092 29.3401C4.50278 30.1208 5.66657 30.5168 7.06109 30.5168C11.0787 30.5168 16.8346 27.2568 22.0822 22.0092C25.4419 18.6494 28.0668 14.9803 29.4732 11.6775C30.5253 9.20573 31.3692 5.7856 29.4124 3.52858C29.3432 3.44884 29.2438 3.38302 29.1169 3.33348C28.0925 2.93175 25.7972 1.93014 24.5204 1.36928C24.4719 1.3479 24.421 1.33705 24.3691 1.33705Z" fill="#253993"/>
</svg>
