<svg width="38" height="36" viewBox="0 0 38 36" fill="none" xmlns="http://www.w3.org/2000/svg">
<g clip-path="url(#clip0_70_368)">
<path d="M35.606 35.7762H2.52344V35.0079C2.52344 26.607 9.94381 19.7725 19.0647 19.7725C28.1856 19.7725 35.606 26.607 35.606 35.0079V35.7762ZM4.21481 34.2395H33.9143C33.4808 27.0419 26.9856 21.3092 19.0647 21.3092C11.1438 21.3092 4.64903 27.0419 4.21481 34.2395Z" fill="#253993"/>
<path d="M4.21481 34.2394H33.9143C33.4808 27.0418 26.9856 21.3091 19.0647 21.3091C11.1438 21.3091 4.64903 27.0418 4.21481 34.2394Z" fill="#253993"/>
<path d="M19.0647 18.0928C14.0081 18.0928 9.89459 14.3036 9.89459 9.64615C9.89459 4.98911 14.0081 1.19995 19.0647 1.19995C24.1214 1.19995 28.2349 4.98911 28.2349 9.64615C28.2349 14.3036 24.1214 18.0928 19.0647 18.0928ZM19.0647 2.73667C14.9282 2.73667 11.563 5.83623 11.563 9.64615C11.563 13.456 14.9282 16.5561 19.0647 16.5561C23.2012 16.5561 26.5665 13.4564 26.5665 9.64615C26.5665 5.83623 23.2012 2.73667 19.0647 2.73667Z" fill="#253993"/>
<path d="M19.0647 2.73657C14.9282 2.73657 11.563 5.83614 11.563 9.64605C11.563 13.456 14.9282 16.556 19.0647 16.556C23.2012 16.556 26.5665 13.4563 26.5665 9.64605C26.5665 5.83614 23.2012 2.73657 19.0647 2.73657Z" fill="#253993"/>
</g>
<defs>
<clipPath id="clip0_70_368">
<rect width="38" height="35" fill="white" transform="translate(0 0.926514)"/>
</clipPath>
</defs>
</svg>
