<svg width="36" height="37" viewBox="0 0 36 37" fill="none" xmlns="http://www.w3.org/2000/svg">
<g clip-path="url(#clip0_70_386)">
<path d="M17.9798 36.6876C17.6009 36.6876 17.2219 36.6279 16.8611 36.5078C9.13031 33.9401 4.13474 27.7918 4.13474 20.8446V8.5754C4.13474 7.32592 5.02464 6.25741 6.25041 6.03454C10.1723 5.32089 13.5889 3.85012 16.4051 1.66293C17.333 0.942562 18.6271 0.942957 19.5537 1.66293C22.3704 3.85012 25.7869 5.32089 29.7089 6.03454C30.9346 6.25741 31.8245 7.32592 31.8245 8.5754V20.8446C31.8245 27.7918 26.829 33.9401 19.0981 36.5078C18.7377 36.6279 18.3588 36.6876 17.9798 36.6876ZM17.9798 3.49527C17.9372 3.49527 17.8945 3.50871 17.8597 3.53597C14.7392 5.95947 10.9761 7.58514 6.6752 8.36755C6.57721 8.38533 6.50568 8.47305 6.50568 8.5754V20.8446C6.50568 26.7526 10.8639 32.0173 17.6088 34.2578C17.8482 34.3372 18.1118 34.3372 18.3509 34.2578C25.0958 32.0176 29.4536 26.7526 29.4536 20.8446V8.5754C29.4536 8.47266 29.3825 8.38533 29.2849 8.36755C24.9836 7.58514 21.2205 5.95947 18.0996 3.53597C18.0648 3.5091 18.0225 3.49527 17.9798 3.49527Z" fill="#253993"/>
<path d="M16.2194 24.5587C15.8563 24.5587 15.5133 24.3923 15.2884 24.107L11.768 19.6401C11.3625 19.1256 11.4511 18.3804 11.9652 17.9754C12.4793 17.5699 13.2245 17.6584 13.63 18.1725L16.2194 21.4579L22.3289 13.7057C22.734 13.1916 23.4792 13.1035 23.9941 13.5085C24.5082 13.9135 24.5963 14.6592 24.1913 15.1733L17.1504 24.107C16.926 24.3923 16.5826 24.5587 16.2194 24.5587Z" fill="#253993"/>
</g>
<defs>
<clipPath id="clip0_70_386">
<rect width="36" height="36" fill="white" transform="translate(0 0.926514)"/>
</clipPath>
</defs>
</svg>
