<svg width="24" height="25" viewBox="0 0 24 25" fill="none" xmlns="http://www.w3.org/2000/svg">
<path d="M22.6046 7.90127H0.548828C0.245875 7.90127 0 7.65539 0 7.35244V4.46067C0 2.98789 1.19809 1.78979 2.67087 1.78979H20.4825C21.955 1.78979 23.1531 2.98789 23.1531 4.46067V7.35272C23.1534 7.65567 22.9075 7.90127 22.6046 7.90127ZM1.09766 6.80361H22.0558V4.46039C22.0558 3.59297 21.3502 2.88718 20.4828 2.88718H2.67087C1.80317 2.88718 1.09766 3.59297 1.09766 4.46039V6.80361Z" fill="#253993"/>
<path d="M11.0636 24.6972H2.67087C1.19809 24.6972 0 23.4991 0 22.0263V7.35229C0 7.04934 0.245875 6.80347 0.548828 6.80347H22.6046C22.9075 6.80347 23.1534 7.04934 23.1534 7.35229V12.6073C23.1534 12.9103 22.9075 13.1562 22.6046 13.1562C22.3016 13.1562 22.0558 12.9103 22.0558 12.6073V7.90112H1.09766V22.026C1.09766 22.8935 1.80345 23.5993 2.67087 23.5993H11.0636C11.3665 23.5993 11.6124 23.8451 11.6124 24.1481C11.6124 24.451 11.3668 24.6972 11.0636 24.6972Z" fill="#253993"/>
<path d="M4.95093 4.67739C4.64797 4.67739 4.4021 4.43151 4.4021 4.12856V0.548828C4.4021 0.245875 4.64797 0 4.95093 0C5.25388 0 5.49976 0.245875 5.49976 0.548828V4.12856C5.49976 4.43151 5.25416 4.67739 4.95093 4.67739Z" fill="#253993"/>
<path d="M18.2024 4.67739C17.8994 4.67739 17.6536 4.43151 17.6536 4.12856V0.548828C17.6536 0.245875 17.8994 0 18.2024 0C18.5053 0 18.7512 0.245875 18.7512 0.548828V4.12856C18.7512 4.43151 18.5053 4.67739 18.2024 4.67739Z" fill="#253993"/>
<path d="M11.5767 4.67739C11.2737 4.67739 11.0278 4.43151 11.0278 4.12856V0.548828C11.0278 0.245875 11.2737 0 11.5767 0C11.8796 0 12.1255 0.245875 12.1255 0.548828V4.12856C12.1255 4.43151 11.8796 4.67739 11.5767 4.67739Z" fill="#253993"/>
<path d="M4.93976 11.521H4.52292C4.33495 11.521 4.18237 11.3687 4.18237 11.1805V10.7636C4.18237 10.5757 4.33467 10.4231 4.52292 10.4231H4.93976C5.12773 10.4231 5.2803 10.5754 5.2803 10.7636V11.1805C5.2803 11.3687 5.128 11.521 4.93976 11.521Z" fill="#253993"/>
<path d="M9.50323 11.521H9.0864C8.89842 11.521 8.74585 11.3687 8.74585 11.1805V10.7636C8.74585 10.5757 8.89815 10.4231 9.0864 10.4231H9.50323C9.69121 10.4231 9.84378 10.5754 9.84378 10.7636V11.1805C9.84378 11.3687 9.69148 11.521 9.50323 11.521Z" fill="#253993"/>
<path d="M14.0667 11.521H13.6499C13.4619 11.521 13.3093 11.3687 13.3093 11.1805V10.7636C13.3093 10.5757 13.4616 10.4231 13.6499 10.4231H14.0667C14.2547 10.4231 14.4073 10.5754 14.4073 10.7636V11.1805C14.4073 11.3687 14.255 11.521 14.0667 11.521Z" fill="#253993"/>
<path d="M18.6306 11.521H18.2137C18.0257 11.521 17.8732 11.3687 17.8732 11.1805V10.7636C17.8732 10.5757 18.0255 10.4231 18.2137 10.4231H18.6306C18.8185 10.4231 18.9711 10.5754 18.9711 10.7636V11.1805C18.9708 11.3687 18.8185 11.521 18.6306 11.521Z" fill="#253993"/>
<path d="M4.93976 16.0845H4.52292C4.33495 16.0845 4.18237 15.9322 4.18237 15.744V15.3271C4.18237 15.1391 4.33467 14.9866 4.52292 14.9866H4.93976C5.12773 14.9866 5.2803 15.1389 5.2803 15.3271V15.744C5.2803 15.9322 5.128 16.0845 4.93976 16.0845Z" fill="#253993"/>
<path d="M9.50323 16.0845H9.0864C8.89842 16.0845 8.74585 15.9322 8.74585 15.744V15.3271C8.74585 15.1391 8.89815 14.9866 9.0864 14.9866H9.50323C9.69121 14.9866 9.84378 15.1389 9.84378 15.3271V15.744C9.84378 15.9322 9.69148 16.0845 9.50323 16.0845Z" fill="#253993"/>
<path d="M4.93976 20.648H4.52292C4.33495 20.648 4.18237 20.4957 4.18237 20.3074V19.8906C4.18237 19.7026 4.33467 19.55 4.52292 19.55H4.93976C5.12773 19.55 5.2803 19.7023 5.2803 19.8906V20.3074C5.2803 20.4957 5.128 20.648 4.93976 20.648Z" fill="#253993"/>
<path d="M9.50323 20.648H9.0864C8.89842 20.648 8.74585 20.4957 8.74585 20.3074V19.8906C8.74585 19.7026 8.89815 19.55 9.0864 19.55H9.50323C9.69121 19.55 9.84378 19.7023 9.84378 19.8906V20.3074C9.84378 20.4957 9.69148 20.648 9.50323 20.648Z" fill="#253993"/>
<path d="M17.5507 24.6974C14.4614 24.6974 11.948 22.184 11.948 19.0947C11.948 16.0051 14.4614 13.4917 17.5507 13.4917C20.6401 13.4917 23.1534 16.0051 23.1534 19.0947C23.1534 22.184 20.6398 24.6974 17.5507 24.6974ZM17.5507 14.5894C15.0664 14.5894 13.0457 16.6104 13.0457 19.0947C13.0457 21.579 15.0664 23.5997 17.5507 23.5997C20.035 23.5997 22.0558 21.579 22.0558 19.0947C22.0558 16.6104 20.0347 14.5894 17.5507 14.5894Z" fill="#253993"/>
<path d="M16.9779 21.1441C16.9736 21.1441 16.9692 21.1441 16.9648 21.1438C16.8103 21.1402 16.6643 21.0713 16.563 20.9547L15.3984 19.6112C15.2 19.3823 15.2247 19.0355 15.4539 18.837C15.6827 18.6389 16.0298 18.6628 16.228 18.8925L16.9974 19.7802L19.179 17.4954C19.3881 17.2756 19.7358 17.2682 19.9548 17.4776C20.174 17.687 20.182 18.0341 19.9726 18.2534L17.3745 20.9745C17.271 21.0829 17.1278 21.1441 16.9779 21.1441Z" fill="#253993"/>
</svg>
