<svg width="34" height="34" viewBox="0 0 34 34" fill="none" xmlns="http://www.w3.org/2000/svg">
<g clip-path="url(#clip0_11_182)">
<path d="M31.9559 32.5178H2.00657C1.03595 32.5178 0.246277 31.7281 0.246277 30.7575V18.4961H14.6983L14.6792 19.0666C14.6781 19.1022 14.674 19.1364 14.6692 19.171C14.67 20.4164 15.7068 21.4528 16.9816 21.4528C18.2487 21.4528 19.2811 20.4282 19.2929 19.1637C19.2873 19.1261 19.2844 19.0938 19.2837 19.0603L19.2712 18.4961H33.7162V30.7575C33.7162 31.7277 32.9265 32.5178 31.9559 32.5178ZM1.34968 19.5995V30.7575C1.34968 31.1198 1.64429 31.4144 2.00657 31.4144H31.9559C32.3182 31.4144 32.6128 31.1198 32.6128 30.7575V19.5995H20.3654C20.1414 21.2664 18.7088 22.5562 16.9812 22.5562C15.2537 22.5562 13.8214 21.2664 13.5971 19.5995H1.34968Z" fill="white"/>
<path d="M1.34968 19.5995V30.7575C1.34968 31.1198 1.64429 31.4144 2.00657 31.4144H31.9559C32.3182 31.4144 32.6128 31.1198 32.6128 30.7575V19.5995H20.3654C20.1414 21.2664 18.7088 22.5562 16.9812 22.5562C15.2537 22.5562 13.8214 21.2664 13.5971 19.5995H1.34968Z" fill="white"/>
<path d="M31.9559 6.86581H22.1683V6.35126C22.1683 3.79026 20.0847 1.7063 17.5234 1.7063H16.4395C13.8785 1.7063 11.7945 3.79026 11.7945 6.35126V6.86581H2.00657C1.03595 6.86581 0.246277 7.65548 0.246277 8.62611V16.2234H33.7162V8.62611C33.7162 7.65548 32.9265 6.86581 31.9559 6.86581ZM12.8979 6.35126C12.8979 4.39823 14.4864 2.8097 16.4395 2.8097H17.5234C19.4764 2.8097 21.0649 4.39823 21.0649 6.35126V6.86581H12.8979V6.35126ZM32.6128 15.1196H1.34968V8.62611C1.34968 8.26419 1.64429 7.96922 2.00657 7.96922H31.9559C32.3182 7.96922 32.6128 8.26382 32.6128 8.62611V15.1196Z" fill="white"/>
<path d="M32.6128 15.1196H1.34968V8.62611C1.34968 8.26419 1.64429 7.96922 2.00657 7.96922H31.9559C32.3182 7.96922 32.6128 8.26382 32.6128 8.62611V15.1196Z" fill="white"/>
</g>
<defs>
<clipPath id="clip0_11_182">
<rect width="33.5079" height="33.5079" fill="white" transform="translate(0.246094 0.376953)"/>
</clipPath>
</defs>
</svg>
