<svg width="160" height="160" viewBox="0 0 160 160" fill="none" xmlns="http://www.w3.org/2000/svg">
<path d="M150.489 51.4469H9.33196C7.39306 51.4469 5.81946 49.8733 5.81946 47.9344V29.4271C5.81946 20.0013 13.4872 12.3335 22.913 12.3335H136.908C146.332 12.3335 154 20.0013 154 29.4271V47.9362C154.001 49.8751 152.428 51.4469 150.489 51.4469ZM12.8445 44.4219H146.976V29.4253C146.976 23.8738 142.461 19.3567 136.909 19.3567H22.913C17.3598 19.3567 12.8445 23.8738 12.8445 29.4253V44.4219Z" fill="white"/>
<path d="M76.6262 158.942H22.913C13.4872 158.942 5.81946 151.274 5.81946 141.848V47.9344C5.81946 45.9955 7.39306 44.4219 9.33196 44.4219H150.489C152.428 44.4219 154.001 45.9955 154.001 47.9344V81.5666C154.001 83.5055 152.428 85.0791 150.489 85.0791C148.55 85.0791 146.976 83.5055 146.976 81.5666V51.4469H12.8445V141.846C12.8445 147.398 17.3615 151.915 22.913 151.915H76.6262C78.5651 151.915 80.1387 153.489 80.1387 155.427C80.1387 157.366 78.5668 158.942 76.6262 158.942Z" fill="white"/>
<path d="M37.5057 30.8144C35.5668 30.8144 33.9932 29.2408 33.9932 27.3019V4.39165C33.9932 2.45275 35.5668 0.87915 37.5057 0.87915C39.4446 0.87915 41.0182 2.45275 41.0182 4.39165V27.3019C41.0182 29.2408 39.4464 30.8144 37.5057 30.8144Z" fill="white"/>
<path d="M122.315 30.8144C120.376 30.8144 118.803 29.2408 118.803 27.3019V4.39165C118.803 2.45275 120.376 0.87915 122.315 0.87915C124.254 0.87915 125.828 2.45275 125.828 4.39165V27.3019C125.828 29.2408 124.254 30.8144 122.315 30.8144Z" fill="white"/>
<path d="M79.9104 30.8144C77.9715 30.8144 76.3979 29.2408 76.3979 27.3019V4.39165C76.3979 2.45275 77.9715 0.87915 79.9104 0.87915C81.8493 0.87915 83.4229 2.45275 83.4229 4.39165V27.3019C83.4229 29.2408 81.8493 30.8144 79.9104 30.8144Z" fill="white"/>
<path d="M37.4337 74.6137H34.766C33.563 74.6137 32.5865 73.6389 32.5865 72.4342V69.7664C32.5865 68.5634 33.5612 67.5869 34.766 67.5869H37.4337C38.6368 67.5869 39.6132 68.5616 39.6132 69.7664V72.4342C39.6132 73.6389 38.6385 74.6137 37.4337 74.6137Z" fill="white"/>
<path d="M66.6402 74.6137H63.9724C62.7694 74.6137 61.7929 73.6389 61.7929 72.4342V69.7664C61.7929 68.5634 62.7676 67.5869 63.9724 67.5869H66.6402C67.8432 67.5869 68.8197 68.5616 68.8197 69.7664V72.4342C68.8197 73.6389 67.8449 74.6137 66.6402 74.6137Z" fill="white"/>
<path d="M95.8466 74.6137H93.1788C91.9758 74.6137 90.9993 73.6389 90.9993 72.4342V69.7664C90.9993 68.5634 91.974 67.5869 93.1788 67.5869H95.8466C97.0496 67.5869 98.0261 68.5616 98.0261 69.7664V72.4342C98.0261 73.6389 97.0514 74.6137 95.8466 74.6137Z" fill="white"/>
<path d="M125.055 74.6137H122.387C121.184 74.6137 120.208 73.6389 120.208 72.4342V69.7664C120.208 68.5634 121.182 67.5869 122.387 67.5869H125.055C126.258 67.5869 127.234 68.5616 127.234 69.7664V72.4342C127.233 73.6389 126.258 74.6137 125.055 74.6137Z" fill="white"/>
<path d="M37.4337 103.82H34.766C33.563 103.82 32.5865 102.845 32.5865 101.64V98.9727C32.5865 97.7697 33.5612 96.7932 34.766 96.7932H37.4337C38.6368 96.7932 39.6132 97.7679 39.6132 98.9727V101.64C39.6132 102.845 38.6385 103.82 37.4337 103.82Z" fill="white"/>
<path d="M66.6402 103.82H63.9724C62.7694 103.82 61.7929 102.845 61.7929 101.64V98.9727C61.7929 97.7697 62.7676 96.7932 63.9724 96.7932H66.6402C67.8432 96.7932 68.8197 97.7679 68.8197 98.9727V101.64C68.8197 102.845 67.8449 103.82 66.6402 103.82Z" fill="white"/>
<path d="M37.4337 133.027H34.766C33.563 133.027 32.5865 132.052 32.5865 130.847V128.179C32.5865 126.976 33.5612 126 34.766 126H37.4337C38.6368 126 39.6132 126.974 39.6132 128.179V130.847C39.6132 132.052 38.6385 133.027 37.4337 133.027Z" fill="white"/>
<path d="M66.6402 133.027H63.9724C62.7694 133.027 61.7929 132.052 61.7929 130.847V128.179C61.7929 126.976 62.7676 126 63.9724 126H66.6402C67.8432 126 68.8197 126.974 68.8197 128.179V130.847C68.8197 132.052 67.8449 133.027 66.6402 133.027Z" fill="white"/>
<path d="M118.144 158.942C98.372 158.942 82.2866 142.856 82.2866 123.084C82.2866 103.311 98.372 87.2251 118.144 87.2251C137.916 87.2251 154.001 103.311 154.001 123.084C154.001 142.856 137.914 158.942 118.144 158.942ZM118.144 94.2501C102.245 94.2501 89.3116 107.185 89.3116 123.084C89.3116 138.984 102.245 151.917 118.144 151.917C134.043 151.917 146.976 138.984 146.976 123.084C146.976 107.185 134.041 94.2501 118.144 94.2501Z" fill="white"/>
<path d="M114.479 136.202C114.451 136.202 114.422 136.202 114.394 136.2C113.406 136.177 112.471 135.736 111.823 134.99L104.37 126.391C103.1 124.927 103.258 122.707 104.724 121.437C106.189 120.169 108.411 120.322 109.679 121.792L114.603 127.473L128.566 112.851C129.904 111.444 132.129 111.397 133.53 112.737C134.934 114.077 134.985 116.298 133.645 117.701L117.016 135.116C116.354 135.81 115.438 136.202 114.479 136.202Z" fill="white"/>
</svg>
