<svg width="256" height="256" viewBox="0 0 256 256" fill="none" xmlns="http://www.w3.org/2000/svg">
<path d="M239.872 254.9H17V249.28C17 187.834 66.9899 137.844 128.436 137.844C189.882 137.844 239.872 187.834 239.872 249.28V254.9ZM28.3945 243.66H228.475C225.555 191.015 181.798 149.084 128.436 149.084C75.0743 149.084 31.3198 191.015 28.3945 243.66Z" fill="white"/>
<path d="M28.3945 243.66H228.475C225.555 191.015 181.798 149.084 128.436 149.084C75.0743 149.084 31.3198 191.015 28.3945 243.66Z" fill="white"/>
<path d="M128.436 125.559C94.3705 125.559 66.6583 97.8435 66.6583 63.7779C66.6583 29.715 94.3705 2 128.436 2C162.502 2 190.214 29.715 190.214 63.7779C190.214 97.8435 162.502 125.559 128.436 125.559ZM128.436 13.24C100.569 13.24 77.8983 35.9111 77.8983 63.7779C77.8983 91.6446 100.569 114.319 128.436 114.319C156.303 114.319 178.974 91.6474 178.974 63.7779C178.974 35.9111 156.303 13.24 128.436 13.24Z" fill="white"/>
<path d="M128.436 13.24C100.569 13.24 77.8983 35.9111 77.8983 63.7779C77.8983 91.6446 100.569 114.319 128.436 114.319C156.303 114.319 178.974 91.6474 178.974 63.7779C178.974 35.9111 156.303 13.24 128.436 13.24Z" fill="white"/>
</svg>
